<svg width="56" height="21" viewBox="0 0 56 21" fill="none" xmlns="http://www.w3.org/2000/svg">
<path d="M2 1V10.7898M2 18.9671V10.7898M2 10.7898H9.60147M9.60147 10.7898V2.61243C12.8398 0.971107 18.1243 2.61243 18.1243 2.61243M9.60147 10.7898C13.622 9.71016 15.0241 10.4427 16.7423 12.9781V17.585V18.9671C13.9538 19.1254 10.0622 19.1975 9.60147 18.9671" stroke="url(#paint0_linear_47_2212)" stroke-width="2.30348"/>
<path d="M22.9082 9.08845C22.6797 9.08845 22.5028 9.0258 22.3775 8.90049C22.2596 8.76781 22.2006 8.58722 22.2006 8.35871V1.84632C22.2006 1.61045 22.2596 1.42985 22.3775 1.30454C22.5028 1.17923 22.6797 1.11658 22.9082 1.11658C23.1367 1.11658 23.31 1.17923 23.4279 1.30454C23.5532 1.42985 23.6159 1.61045 23.6159 1.84632V4.4557H27.6294V1.84632C27.6294 1.61045 27.6884 1.42985 27.8064 1.30454C27.9317 1.17923 28.1086 1.11658 28.3371 1.11658C28.5656 1.11658 28.7388 1.17923 28.8567 1.30454C28.982 1.42985 29.0447 1.61045 29.0447 1.84632V8.35871C29.0447 8.58722 28.982 8.76781 28.8567 8.90049C28.7388 9.0258 28.5656 9.08845 28.3371 9.08845C28.1086 9.08845 27.9317 9.0258 27.8064 8.90049C27.6884 8.76781 27.6294 8.58722 27.6294 8.35871V5.63877H23.6159V8.35871C23.6159 8.58722 23.5569 8.76781 23.439 8.90049C23.321 9.0258 23.1441 9.08845 22.9082 9.08845ZM31.3051 9.08845C31.084 9.08845 30.9144 9.02948 30.7965 8.91155C30.6786 8.78624 30.6196 8.60933 30.6196 8.38083V4.2014C30.6196 3.97289 30.6786 3.79967 30.7965 3.68173C30.9144 3.56379 31.0803 3.50483 31.294 3.50483C31.5078 3.50483 31.6737 3.56379 31.7916 3.68173C31.9095 3.79967 31.9685 3.97289 31.9685 4.2014V4.95325L31.8469 4.67683C32.009 4.28616 32.2597 3.99132 32.5987 3.7923C32.9452 3.58591 33.3358 3.48271 33.7707 3.48271C34.2056 3.48271 34.5631 3.56379 34.8432 3.72596C35.1233 3.88812 35.3334 4.13506 35.4735 4.46676C35.6135 4.79109 35.6835 5.20387 35.6835 5.70511V8.38083C35.6835 8.60933 35.6246 8.78624 35.5066 8.91155C35.3887 9.02948 35.2192 9.08845 34.998 9.08845C34.7769 9.08845 34.6037 9.02948 34.4784 8.91155C34.3604 8.78624 34.3015 8.60933 34.3015 8.38083V5.77145C34.3015 5.35129 34.2204 5.04539 34.0582 4.85374C33.9034 4.66209 33.6602 4.56627 33.3285 4.56627C32.9231 4.56627 32.5987 4.69526 32.3555 4.95325C32.1196 5.20387 32.0017 5.53926 32.0017 5.95941V8.38083C32.0017 8.85258 31.7695 9.08845 31.3051 9.08845ZM39.6082 11.1008C39.2102 11.1008 38.8232 11.0639 38.4473 10.9902C38.0787 10.9165 37.7433 10.8022 37.4411 10.6474C37.3011 10.5737 37.2053 10.4853 37.1537 10.3821C37.1094 10.2789 37.0947 10.172 37.1094 10.0614C37.1315 9.95825 37.1758 9.86611 37.2421 9.78502C37.3158 9.70394 37.4043 9.64866 37.5075 9.61917C37.6107 9.58969 37.7175 9.60443 37.8281 9.6634C38.1524 9.82557 38.4583 9.92876 38.7458 9.97299C39.0407 10.0246 39.2913 10.0504 39.4977 10.0504C39.9915 10.0504 40.3601 9.92876 40.6033 9.68551C40.854 9.44964 40.9793 9.09582 40.9793 8.62407V7.62897H41.0788C40.9682 8.0049 40.736 8.30711 40.3822 8.53562C40.0358 8.75675 39.6414 8.86732 39.1991 8.86732C38.7127 8.86732 38.2888 8.75675 37.9276 8.53562C37.5664 8.30711 37.2863 7.99016 37.0873 7.58474C36.8883 7.17933 36.7888 6.70758 36.7888 6.16949C36.7888 5.76408 36.8441 5.3992 36.9546 5.07488C37.0726 4.74317 37.2347 4.45939 37.4411 4.22351C37.6549 3.98763 37.9092 3.80704 38.204 3.68173C38.5063 3.54905 38.838 3.48271 39.1991 3.48271C39.6562 3.48271 40.0542 3.59696 40.3933 3.82547C40.7397 4.0466 40.9645 4.34145 41.0677 4.71L40.9572 4.98642V4.2014C40.9572 3.97289 41.0161 3.79967 41.1341 3.68173C41.2594 3.56379 41.4289 3.50483 41.6427 3.50483C41.8638 3.50483 42.0333 3.56379 42.1513 3.68173C42.2692 3.79967 42.3282 3.97289 42.3282 4.2014V8.45822C42.3282 9.33539 42.096 9.9951 41.6316 10.4374C41.1672 10.8796 40.4928 11.1008 39.6082 11.1008ZM39.5751 7.81693C39.8625 7.81693 40.1095 7.75059 40.3159 7.61791C40.5223 7.48523 40.6807 7.29727 40.7913 7.05402C40.9092 6.8034 40.9682 6.50856 40.9682 6.16949C40.9682 5.66088 40.8429 5.26284 40.5923 4.97536C40.3417 4.68052 40.0026 4.5331 39.5751 4.5331C39.2876 4.5331 39.0407 4.59944 38.8343 4.73212C38.6279 4.8648 38.4657 5.05276 38.3478 5.29601C38.2372 5.53926 38.1819 5.83042 38.1819 6.16949C38.1819 6.6781 38.3072 7.07982 38.5579 7.37467C38.8085 7.66951 39.1475 7.81693 39.5751 7.81693ZM24.8874 19.1106C24.5631 19.1106 24.2387 19.0848 23.9144 19.0332C23.5901 18.9889 23.2842 18.9189 22.9967 18.8231C22.7092 18.7199 22.4512 18.5946 22.2227 18.4472C22.09 18.3587 21.9979 18.2518 21.9463 18.1265C21.8947 18.0012 21.8763 17.8796 21.891 17.7617C21.9131 17.6363 21.961 17.5295 22.0348 17.441C22.1158 17.3452 22.2154 17.2862 22.3333 17.2641C22.4512 17.242 22.5802 17.2752 22.7203 17.3636C23.0446 17.5553 23.3874 17.6953 23.7485 17.7838C24.1097 17.8722 24.4893 17.9164 24.8874 17.9164C25.4697 17.9164 25.8935 17.8206 26.1589 17.629C26.4243 17.43 26.5569 17.1756 26.5569 16.8661C26.5569 16.6081 26.4611 16.4054 26.2695 16.2579C26.0852 16.1105 25.7645 15.9889 25.3075 15.8931L24.0913 15.6388C23.391 15.4913 22.8677 15.2444 22.5213 14.898C22.1822 14.5442 22.0126 14.0798 22.0126 13.5048C22.0126 13.1436 22.0864 12.8156 22.2338 12.5208C22.3812 12.2259 22.5876 11.9716 22.853 11.7579C23.1257 11.5441 23.4463 11.3819 23.8149 11.2714C24.1908 11.1534 24.6036 11.0945 25.0532 11.0945C25.4955 11.0945 25.9157 11.1498 26.3137 11.2603C26.7117 11.3709 27.0692 11.533 27.3862 11.7468C27.5041 11.8279 27.5815 11.9274 27.6184 12.0453C27.6626 12.1633 27.6737 12.2812 27.6516 12.3992C27.6294 12.5097 27.5778 12.6055 27.4968 12.6866C27.4157 12.7677 27.3125 12.8156 27.1872 12.8304C27.0692 12.8451 26.9329 12.8083 26.7781 12.7198C26.5053 12.565 26.2289 12.4544 25.9488 12.3881C25.6687 12.3218 25.3665 12.2886 25.0422 12.2886C24.7031 12.2886 24.4119 12.3365 24.1687 12.4323C23.9255 12.5282 23.7375 12.6645 23.6048 12.8414C23.4795 13.011 23.4168 13.2137 23.4168 13.4495C23.4168 13.7149 23.5053 13.9287 23.6822 14.0908C23.8591 14.2456 24.1613 14.3672 24.5889 14.4557L25.794 14.71C26.5238 14.8648 27.0656 15.108 27.4194 15.4397C27.7806 15.7714 27.9611 16.2137 27.9611 16.7665C27.9611 17.1204 27.8874 17.441 27.74 17.7285C27.6 18.016 27.3936 18.2629 27.1208 18.4693C26.8555 18.6757 26.5348 18.8341 26.1589 18.9447C25.783 19.0553 25.3591 19.1106 24.8874 19.1106ZM31.4659 19.1106C30.9867 19.1106 30.585 19.0295 30.2607 18.8673C29.9437 18.7052 29.7078 18.4693 29.553 18.1597C29.3983 17.8427 29.3209 17.4521 29.3209 16.9877V14.6326H28.7459C28.569 14.6326 28.4326 14.5884 28.3368 14.4999C28.241 14.4041 28.1931 14.2751 28.1931 14.1129C28.1931 13.9434 28.241 13.8144 28.3368 13.726C28.4326 13.6375 28.569 13.5933 28.7459 13.5933H29.3209V12.5871C29.3209 12.3586 29.3798 12.1854 29.4978 12.0675C29.6231 11.9495 29.7963 11.8905 30.0174 11.8905C30.2386 11.8905 30.4081 11.9495 30.526 12.0675C30.644 12.1854 30.7029 12.3586 30.7029 12.5871V13.5933H31.875C32.0519 13.5933 32.1882 13.6375 32.284 13.726C32.3799 13.8144 32.4278 13.9434 32.4278 14.1129C32.4278 14.2751 32.3799 14.4041 32.284 14.4999C32.1882 14.5884 32.0519 14.6326 31.875 14.6326H30.7029V16.9103C30.7029 17.2641 30.7803 17.5295 30.9351 17.7064C31.0899 17.8833 31.3405 17.9717 31.687 17.9717C31.8123 17.9717 31.9229 17.9607 32.0187 17.9386C32.1145 17.9164 32.1993 17.9017 32.273 17.8943C32.3614 17.887 32.4352 17.9164 32.4941 17.9828C32.5531 18.0418 32.5826 18.1671 32.5826 18.3587C32.5826 18.5061 32.5568 18.6388 32.5052 18.7568C32.461 18.8673 32.3762 18.9447 32.2509 18.9889C32.1551 19.0184 32.0297 19.0442 31.875 19.0663C31.7202 19.0958 31.5838 19.1106 31.4659 19.1106ZM35.6442 19.1106C35.084 19.1106 34.5975 18.9963 34.1848 18.7678C33.772 18.5393 33.4513 18.215 33.2228 17.7948C32.9943 17.3673 32.8801 16.8661 32.8801 16.2911C32.8801 15.8562 32.9427 15.4692 33.068 15.1302C33.2007 14.7837 33.3887 14.4889 33.6319 14.2456C33.8752 13.995 34.1663 13.807 34.5054 13.6817C34.8445 13.5491 35.2241 13.4827 35.6442 13.4827C36.2045 13.4827 36.6909 13.597 37.1037 13.8255C37.5165 14.054 37.8372 14.3783 38.0657 14.7985C38.2942 15.2186 38.4084 15.7162 38.4084 16.2911C38.4084 16.726 38.3421 17.1167 38.2094 17.4631C38.0841 17.8096 37.8998 18.1081 37.6566 18.3587C37.4133 18.602 37.1222 18.7899 36.7831 18.9226C36.444 19.0479 36.0644 19.1106 35.6442 19.1106ZM35.6442 18.0602C35.917 18.0602 36.1565 17.9938 36.3629 17.8612C36.5693 17.7285 36.7278 17.5331 36.8384 17.2752C36.9563 17.0098 37.0153 16.6818 37.0153 16.2911C37.0153 15.7014 36.89 15.2628 36.6393 14.9754C36.3887 14.6805 36.057 14.5331 35.6442 14.5331C35.3715 14.5331 35.132 14.5994 34.9256 14.7321C34.7192 14.8574 34.557 15.0528 34.4391 15.3181C34.3285 15.5761 34.2732 15.9004 34.2732 16.2911C34.2732 16.8734 34.3985 17.3157 34.6491 17.6179C34.8998 17.9128 35.2315 18.0602 35.6442 18.0602ZM40.2568 19.0885C40.0283 19.0885 39.8514 19.0295 39.7261 18.9115C39.6081 18.7862 39.5492 18.6093 39.5492 18.3808V14.2014C39.5492 13.9729 39.6081 13.7997 39.7261 13.6817C39.844 13.5638 40.0099 13.5048 40.2236 13.5048C40.4374 13.5048 40.6032 13.5638 40.7212 13.6817C40.8391 13.7997 40.8981 13.9729 40.8981 14.2014V14.898H40.7875C40.8907 14.4557 41.0934 14.1203 41.3956 13.8918C41.6978 13.6633 42.0996 13.5269 42.6008 13.4827C42.7556 13.468 42.8772 13.5085 42.9657 13.6043C43.0615 13.6928 43.1168 13.8328 43.1315 14.0245C43.1463 14.2088 43.102 14.3599 42.9988 14.4778C42.903 14.5884 42.7556 14.6547 42.5566 14.6768L42.3133 14.6989C41.8637 14.7432 41.5246 14.8832 41.2961 15.1191C41.0676 15.3476 40.9534 15.6719 40.9534 16.0921V18.3808C40.9534 18.6093 40.8944 18.7862 40.7765 18.9115C40.6585 19.0295 40.4853 19.0885 40.2568 19.0885ZM46.4573 19.1106C45.8455 19.1106 45.3184 18.9963 44.8762 18.7678C44.4339 18.5393 44.0911 18.215 43.8479 17.7948C43.612 17.3747 43.4941 16.8771 43.4941 16.3022C43.4941 15.742 43.6083 15.2518 43.8368 14.8316C44.0727 14.4115 44.3933 14.0835 44.7988 13.8476C45.2115 13.6043 45.6796 13.4827 46.203 13.4827C46.5863 13.4827 46.929 13.5454 47.2312 13.6707C47.5408 13.796 47.8025 13.9766 48.0163 14.2125C48.2374 14.4483 48.4032 14.7358 48.5138 15.0749C48.6317 15.4066 48.6907 15.7825 48.6907 16.2027C48.6907 16.3353 48.6428 16.4385 48.547 16.5122C48.4585 16.5786 48.3295 16.6118 48.16 16.6118H44.6108V15.8157H47.7177L47.5408 15.9815C47.5408 15.6425 47.4892 15.3587 47.386 15.1302C47.2902 14.9017 47.1465 14.7284 46.9548 14.6105C46.7705 14.4852 46.5383 14.4225 46.2582 14.4225C45.9486 14.4225 45.6833 14.4962 45.4622 14.6437C45.2484 14.7837 45.0825 14.9864 44.9646 15.2518C44.854 15.5098 44.7988 15.8194 44.7988 16.1805V16.2579C44.7988 16.8624 44.9388 17.3157 45.2189 17.6179C45.5064 17.9128 45.9265 18.0602 46.4794 18.0602C46.671 18.0602 46.8848 18.0381 47.1207 17.9938C47.3639 17.9422 47.5924 17.8575 47.8062 17.7395C47.961 17.6511 48.0973 17.6142 48.2153 17.629C48.3332 17.6363 48.4253 17.6769 48.4917 17.7506C48.5654 17.8243 48.6096 17.9164 48.6244 18.027C48.6391 18.1302 48.617 18.2371 48.558 18.3477C48.5064 18.4582 48.4143 18.554 48.2816 18.6351C48.0236 18.7973 47.7251 18.9189 47.386 19C47.0543 19.0737 46.7447 19.1106 46.4573 19.1106ZM51.7644 19.1106C51.4474 19.1106 51.112 19.0774 50.7582 19.0111C50.4044 18.9447 50.0875 18.8305 49.8073 18.6683C49.6894 18.5946 49.6046 18.5098 49.553 18.414C49.5088 18.3108 49.4904 18.2113 49.4978 18.1155C49.5125 18.0123 49.5494 17.9238 49.6083 17.8501C49.6747 17.7764 49.7557 17.7285 49.8516 17.7064C49.9548 17.6843 50.0653 17.7027 50.1833 17.7617C50.4781 17.9017 50.7545 18.0012 51.0125 18.0602C51.2705 18.1118 51.5248 18.1376 51.7754 18.1376C52.1293 18.1376 52.3909 18.0786 52.5605 17.9607C52.7374 17.8354 52.8258 17.6732 52.8258 17.4742C52.8258 17.3046 52.7669 17.1756 52.6489 17.0872C52.5383 16.9914 52.3688 16.9213 52.1403 16.8771L51.0346 16.667C50.5776 16.5786 50.2275 16.4127 49.9843 16.1695C49.7484 15.9189 49.6304 15.5982 49.6304 15.2076C49.6304 14.8537 49.7263 14.5478 49.9179 14.2899C50.1169 14.0319 50.3897 13.8328 50.7361 13.6928C51.0826 13.5527 51.4806 13.4827 51.9302 13.4827C52.2546 13.4827 52.5568 13.5196 52.8369 13.5933C53.1244 13.6596 53.4008 13.7665 53.6661 13.9139C53.7767 13.9729 53.8504 14.0503 53.8873 14.1461C53.9315 14.2419 53.9425 14.3414 53.9204 14.4446C53.8983 14.5405 53.8541 14.6289 53.7878 14.71C53.7214 14.7837 53.6366 14.8316 53.5335 14.8537C53.4376 14.8685 53.3271 14.8464 53.2018 14.7874C52.9732 14.6695 52.7521 14.5847 52.5383 14.5331C52.332 14.4815 52.1329 14.4557 51.9413 14.4557C51.5801 14.4557 51.3111 14.5184 51.1342 14.6437C50.9646 14.769 50.8798 14.9348 50.8798 15.1412C50.8798 15.296 50.9314 15.425 51.0346 15.5282C51.1378 15.6314 51.2963 15.7014 51.5101 15.7383L52.6157 15.9484C53.0949 16.0368 53.4561 16.199 53.6993 16.4348C53.9499 16.6707 54.0752 16.9877 54.0752 17.3857C54.0752 17.9238 53.8652 18.3477 53.445 18.6572C53.0248 18.9595 52.4646 19.1106 51.7644 19.1106Z" fill="black" fill-opacity="0.89"/>
<defs>
<linearGradient id="paint0_linear_47_2212" x1="1.30896" y1="10.2139" x2="9.83182" y2="10.2139" gradientUnits="userSpaceOnUse">
<stop stop-color="#17B56A"/>
<stop offset="1" stop-color="#FFEC42"/>
</linearGradient>
</defs>
</svg>
