<svg width="31" height="23" viewBox="0 0 31 23" fill="none" xmlns="http://www.w3.org/2000/svg">
<g clip-path="url(#clip0_47_596)">
<path d="M5.63748 22.8857V21.3634C5.63748 20.7797 5.2653 20.3993 4.62738 20.3993C4.30847 20.3993 3.96294 20.5007 3.7237 20.8306C3.53773 20.5515 3.27198 20.3993 2.87329 20.3993C2.60742 20.3993 2.34179 20.4753 2.12906 20.7544V20.45H1.57092V22.8857H2.12906V21.5409C2.12906 21.1097 2.3683 20.9066 2.74048 20.9066C3.11241 20.9066 3.29862 21.135 3.29862 21.5409V22.8857H3.85676V21.5409C3.85676 21.1097 4.12239 20.9066 4.46793 20.9066C4.8401 20.9066 5.02607 21.135 5.02607 21.5409V22.8857H5.63748ZM13.9032 20.45H12.9996V19.7142H12.4415V20.45H11.9365V20.932H12.4413V22.0484C12.4413 22.6067 12.6806 22.9364 13.3185 22.9364C13.5577 22.9364 13.8234 22.8604 14.0096 22.7589L13.85 22.3021C13.6906 22.4036 13.5046 22.429 13.3717 22.429C13.1059 22.429 12.9996 22.2768 12.9996 22.023V20.932H13.9032V20.45ZM18.6342 20.3991C18.3153 20.3991 18.1027 20.5515 17.9697 20.7544V20.45H17.4116V22.8857H17.9697V21.5156C17.9697 21.1097 18.1557 20.8813 18.5012 20.8813C18.6075 20.8813 18.7405 20.9068 18.8468 20.9321L19.0062 20.4247C18.8999 20.3993 18.7405 20.3993 18.6342 20.3993M11.4846 20.6531C11.2188 20.4754 10.8467 20.3994 10.448 20.3994C9.81021 20.3994 9.38501 20.7038 9.38501 21.1859C9.38501 21.5919 9.70391 21.8202 10.2621 21.8963L10.5278 21.9218C10.8202 21.9724 10.9796 22.0486 10.9796 22.1755C10.9796 22.353 10.767 22.4799 10.3949 22.4799C10.0227 22.4799 9.73043 22.353 9.54434 22.2262L9.27859 22.6321C9.57098 22.8351 9.96967 22.9365 10.3682 22.9365C11.1125 22.9365 11.5378 22.6068 11.5378 22.15C11.5378 21.7187 11.1922 21.4903 10.6606 21.4143L10.3949 21.3888C10.1556 21.3634 9.96967 21.3128 9.96967 21.1606C9.96967 20.9829 10.1556 20.8814 10.448 20.8814C10.767 20.8814 11.0859 21.0082 11.2454 21.0844L11.4846 20.6531ZM26.3153 20.3994C25.9963 20.3994 25.7837 20.5516 25.6508 20.7545V20.4501H25.0926V22.8858H25.6508V21.5157C25.6508 21.1098 25.8368 20.8814 26.1823 20.8814C26.2887 20.8814 26.4216 20.9069 26.5279 20.9322L26.6874 20.4248C26.5811 20.3994 26.4216 20.3994 26.3153 20.3994ZM19.1923 21.668C19.1923 22.4037 19.7238 22.9365 20.5478 22.9365C20.9199 22.9365 21.1856 22.8605 21.4514 22.6575L21.1856 22.2262C20.973 22.3784 20.7604 22.4545 20.5212 22.4545C20.0693 22.4545 19.7504 22.15 19.7504 21.668C19.7504 21.2113 20.0693 20.9068 20.5212 20.8814C20.7604 20.8814 20.973 20.9575 21.1856 21.1098L21.4514 20.6785C21.1856 20.4754 20.9199 20.3994 20.5478 20.3994C19.7238 20.3994 19.1923 20.9322 19.1923 21.668ZM24.3485 21.668V20.4501H23.7904V20.7545C23.6043 20.5263 23.3385 20.3994 22.993 20.3994C22.2754 20.3994 21.7173 20.9322 21.7173 21.668C21.7173 22.4037 22.2754 22.9365 22.993 22.9365C23.365 22.9365 23.6309 22.8098 23.7904 22.5814V22.8858H24.3485V21.668ZM22.3019 21.668C22.3019 21.2366 22.5943 20.8814 23.0726 20.8814C23.5245 20.8814 23.8435 21.2113 23.8435 21.668C23.8435 22.0993 23.5245 22.4545 23.0726 22.4545C22.5943 22.429 22.3019 22.0993 22.3019 21.668ZM15.6309 20.3994C14.8866 20.3994 14.355 20.9068 14.355 21.668C14.355 22.4292 14.8865 22.9365 15.6574 22.9365C16.0294 22.9365 16.4016 22.8351 16.694 22.6068L16.4281 22.2262C16.2155 22.3784 15.9498 22.4799 15.684 22.4799C15.3385 22.4799 14.9929 22.3277 14.9131 21.8962H16.8003V21.6934C16.8269 20.9068 16.3486 20.3994 15.6309 20.3994ZM15.6307 20.856C15.9762 20.856 16.2155 21.0591 16.2685 21.4397H14.9397C14.9928 21.1098 15.232 20.856 15.6307 20.856ZM29.4779 21.668V19.486H28.9198V20.7545C28.7337 20.5263 28.468 20.3994 28.1224 20.3994C27.4048 20.3994 26.8467 20.9322 26.8467 21.668C26.8467 22.4037 27.4048 22.9365 28.1224 22.9365C28.4946 22.9365 28.7604 22.8098 28.9198 22.5814V22.8858H29.4779V21.668ZM27.4315 21.668C27.4315 21.2366 27.7237 20.8814 28.2022 20.8814C28.6541 20.8814 28.973 21.2113 28.973 21.668C28.973 22.0993 28.6541 22.4545 28.2022 22.4545C27.7237 22.429 27.4315 22.0993 27.4315 21.668ZM8.77348 21.668V20.4501H8.21534V20.7545C8.02925 20.5263 7.7635 20.3994 7.41796 20.3994C6.70037 20.3994 6.14223 20.9322 6.14223 21.668C6.14223 22.4037 6.70037 22.9365 7.41796 22.9365C7.79013 22.9365 8.05589 22.8098 8.21534 22.5814V22.8858H8.77348V21.668ZM6.70037 21.668C6.70037 21.2366 6.99276 20.8814 7.47111 20.8814C7.92295 20.8814 8.24197 21.2113 8.24197 21.668C8.24197 22.0993 7.92295 22.4545 7.47111 22.4545C6.99276 22.429 6.70037 22.0993 6.70037 21.668Z" fill="black"/>
<path d="M11.2986 1.95355H19.6707V16.3142H11.2986V1.95355Z" fill="#FF5F00"/>
<path d="M11.8301 9.13401C11.8301 6.21624 13.2652 3.62822 15.4712 1.95361C13.85 0.735769 11.8035 0 9.57098 0C4.28172 0 0.00268555 4.08487 0.00268555 9.13401C0.00268555 14.1831 4.28172 18.268 9.57086 18.268C11.8034 18.268 13.8499 17.5322 15.4712 16.3143C13.2652 14.6651 11.8301 12.0518 11.8301 9.13401Z" fill="#EB001B"/>
<path d="M30.9665 9.13401C30.9665 14.183 26.6875 18.268 21.3983 18.268C19.1657 18.268 17.1192 17.5322 15.4979 16.3143C17.7305 14.6398 19.1392 12.0518 19.1392 9.13401C19.1392 6.21624 17.7039 3.62822 15.4979 1.95361C17.1191 0.735769 19.1657 0 21.3983 0C26.6875 0 30.9665 4.1103 30.9665 9.13401Z" fill="#F79E1B"/>
</g>
<defs>
<clipPath id="clip0_47_596">
<rect width="31" height="23" fill="white"/>
</clipPath>
</defs>
</svg>
