<svg width="13" height="9" viewBox="0 0 13 9" fill="none" xmlns="http://www.w3.org/2000/svg">
<path d="M11.0995 0.493193C10.9569 0.450449 10.8129 0.412602 10.6678 0.379716C10.5159 0.345436 10.3631 0.31562 10.2096 0.290306C9.65995 0.198991 9.05959 0.155885 8.41487 0.155885H2.97601C2.84622 0.155662 2.71806 0.185577 2.60112 0.243392C2.47397 0.305678 2.36353 0.398851 2.27937 0.514837C2.19521 0.630823 2.13987 0.766126 2.11814 0.909021L0.962097 8.43337L0.928711 8.65271C1.00476 8.1576 1.41726 7.79242 1.90581 7.79242H3.9419C7.94064 7.79242 11.0717 6.12515 11.9863 1.30208C12.0135 1.15943 12.0364 1.0212 12.0574 0.884955C11.8258 0.759547 11.575 0.650918 11.3051 0.55907C11.2369 0.535883 11.1684 0.513921 11.0995 0.493193" fill="#1F264F"/>
</svg>
