<svg width="19" height="23" viewBox="0 0 19 23" fill="none" xmlns="http://www.w3.org/2000/svg">
<g clip-path="url(#clip0_47_601)">
<path d="M16.1157 1.79026C15.0819 0.5807 13.2132 0.0621338 10.8225 0.0621338H3.88416C3.64762 0.0620963 3.41882 0.148705 3.23893 0.306379C3.05904 0.464054 2.93987 0.682447 2.90284 0.922273L0.0138446 19.731C-0.0435791 20.1019 0.236195 20.4378 0.602401 20.4378H4.88589L5.96166 13.4334L5.92827 13.6527C6.00491 13.1576 6.41741 12.7924 6.90589 12.7924H8.94139C12.9401 12.7924 16.0712 11.1251 16.9858 6.30206C17.013 6.15942 17.0365 6.02058 17.0568 5.88494C16.9414 5.82219 16.9414 5.82219 17.0568 5.88494C17.3292 4.10229 17.055 2.88885 16.1157 1.79026Z" fill="#27346A"/>
<path d="M7.60068 5.24277C7.71776 5.18544 7.84586 5.15577 7.97557 5.15595H13.4151C14.0592 5.15595 14.66 5.19898 15.209 5.28968C15.3627 5.31485 15.5155 5.34487 15.6673 5.3797C15.8825 5.42845 16.0952 5.48811 16.3046 5.55845C16.5745 5.65098 16.8259 5.75875 17.0569 5.88494C17.3292 4.1016 17.055 2.88885 16.1157 1.79026C15.0813 0.5807 13.2132 0.0621338 10.8225 0.0621338H3.88357C3.39502 0.0621338 2.9794 0.42724 2.90284 0.922273L0.0138451 19.7303C-0.0435787 20.1018 0.236195 20.4372 0.601808 20.4372H4.88589L7.11777 5.9084C7.13974 5.7656 7.19516 5.63041 7.27928 5.51447C7.3634 5.39852 7.4737 5.30528 7.60068 5.24277Z" fill="#27346A"/>
<path d="M16.9856 6.30207C16.071 11.1245 12.9399 12.7924 8.94113 12.7924H6.90504C6.41656 12.7924 6.00399 13.1576 5.92809 13.6527L4.58976 22.3619C4.53976 22.6864 4.78429 22.9806 5.1042 22.9806H8.71507C8.92191 22.9805 9.12195 22.9047 9.27921 22.7668C9.43646 22.6288 9.54062 22.4378 9.57294 22.2281L9.60811 22.0393L10.2887 17.6117L10.3325 17.367C10.3648 17.1573 10.469 16.9663 10.6262 16.8283C10.7835 16.6904 10.9835 16.6146 11.1903 16.6145H11.7307C15.2286 16.6145 17.9675 15.1558 18.7679 10.9369C19.102 9.1738 18.9291 7.7018 18.0453 6.66786C17.7773 6.3547 17.4444 6.09606 17.0566 5.88495C17.0356 6.02127 17.0128 6.15943 16.9856 6.30207Z" fill="#2790C3"/>
<path d="M16.0995 5.49319C15.9569 5.45045 15.8129 5.4126 15.6678 5.37972C15.5159 5.34544 15.3631 5.31562 15.2096 5.29031C14.6599 5.19899 14.0596 5.15589 13.4149 5.15589H7.97601C7.84622 5.15566 7.71806 5.18558 7.60112 5.24339C7.47397 5.30568 7.36353 5.39885 7.27937 5.51484C7.19521 5.63082 7.13987 5.76613 7.11814 5.90902L5.9621 13.4334L5.92871 13.6527C6.00476 13.1576 6.41726 12.7924 6.90581 12.7924H8.9419C12.9406 12.7924 16.0717 11.1251 16.9863 6.30208C17.0135 6.15943 17.0364 6.0212 17.0574 5.88495C16.8258 5.75955 16.575 5.65092 16.3051 5.55907C16.2369 5.53588 16.1684 5.51392 16.0995 5.49319" fill="#1F264F"/>
</g>
<defs>
<clipPath id="clip0_47_601">
<rect width="19" height="23" fill="white"/>
</clipPath>
</defs>
</svg>
