<svg width="44" height="20" viewBox="0 0 44 20" fill="none" xmlns="http://www.w3.org/2000/svg">
<g clip-path="url(#clip0_47_594)">
<path d="M16.7058 0.25614L10.9452 14.2839H7.1871L4.35226 3.08842C4.18039 2.40053 4.03103 2.14737 3.50803 1.85649C2.65315 1.38246 1.2414 0.939123 0.000488281 0.663333L0.0841894 0.25614H6.13474C6.90472 0.25614 7.59804 0.779474 7.77438 1.68561L9.27224 9.80368L12.9702 0.25614H16.7058ZM21.7863 0.25614L18.8468 14.2839H15.2912L18.231 0.25614H21.7863ZM31.431 9.70386C31.4458 6.00228 26.4169 5.79684 26.4497 4.14298C26.4617 3.64018 26.931 3.10491 27.9581 2.96807C28.4668 2.90088 29.8724 2.84737 31.4644 3.59614L32.0873 0.619649C31.2318 0.30386 30.131 0 28.7617 0C25.247 0 22.7746 1.90561 22.7548 4.63649C22.7318 6.65649 24.5208 7.78228 25.8662 8.45509C27.252 9.14211 27.7167 9.58368 27.7104 10.1977C27.7004 11.1389 26.6035 11.5556 25.5838 11.5711C23.7957 11.6 22.7591 11.0777 21.9323 10.6846L21.2869 13.7596C22.1187 14.1488 23.6518 14.4868 25.2397 14.504C28.9762 14.504 31.42 12.6202 31.431 9.70386ZM40.7121 14.284H43.9995L41.1275 0.25614H38.0945C37.4104 0.25614 36.8355 0.661404 36.5805 1.28439L31.2456 14.2839H34.9792L35.7197 12.1884H40.2812L40.7121 14.284ZM36.7436 9.31404L38.6156 4.04614L39.691 9.31404H36.7436ZM26.3368 18.1453H24.892V19.5177H26.508V19.9304H24.4053V16.1228H26.4251V16.5354H24.892V17.7384H26.3366L26.3368 18.1453ZM27.2544 15.9196H27.7412V19.9302H27.2544V15.9196ZM28.9693 18.6535C28.9803 19.326 29.3956 19.6026 29.8878 19.6026C30.2367 19.6026 30.4524 19.5405 30.6298 19.4616L30.7181 19.8175C30.5466 19.8965 30.2479 19.9925 29.8215 19.9925C28.9972 19.9925 28.5048 19.4333 28.5048 18.6084C28.5048 17.7839 28.9803 17.1396 29.7608 17.1396C30.6408 17.1396 30.8677 17.9195 30.8677 18.4221C30.8677 18.5237 30.862 18.597 30.8508 18.6537L28.9693 18.6535ZM30.3971 18.2977C30.4027 17.9872 30.2699 17.4956 29.722 17.4956C29.2239 17.4956 29.0135 17.9532 28.9747 18.2977H30.3971ZM33.5172 19.8342C33.39 19.8965 33.1077 19.9926 32.7481 19.9926C31.9401 19.9926 31.4144 19.4333 31.4144 18.5972C31.4144 17.7554 31.9786 17.1398 32.8531 17.1398C33.1408 17.1398 33.3954 17.213 33.5282 17.2867L33.4179 17.6651C33.3012 17.603 33.1187 17.5349 32.8531 17.5349C32.2387 17.5349 31.907 18.0039 31.907 18.5691C31.907 19.2016 32.3054 19.5914 32.8366 19.5914C33.1133 19.5914 33.2958 19.5237 33.4342 19.4616L33.5172 19.8342ZM34.8833 16.5409V17.1961H35.5804V17.5744H34.8833V19.0489C34.8833 19.3882 34.9774 19.58 35.2485 19.58C35.3812 19.58 35.4588 19.5689 35.5309 19.546L35.553 19.9249C35.4588 19.9586 35.3095 19.9925 35.1213 19.9925C34.8942 19.9925 34.7116 19.9133 34.5955 19.7837C34.4627 19.6309 34.4073 19.3882 34.4073 19.0661V17.5744H33.9921V17.1961H34.4073V16.6877L34.8833 16.5409ZM36.2605 18.0493C36.2605 17.7272 36.2546 17.4505 36.2383 17.1961H36.6645L36.6869 17.7382H36.703C36.825 17.3714 37.1236 17.1396 37.45 17.1396C37.5 17.1396 37.5388 17.1454 37.5832 17.1509V17.62C37.5333 17.6084 37.4837 17.6084 37.4168 17.6084C37.0741 17.6084 36.8302 17.8682 36.764 18.2414C36.7526 18.318 36.747 18.3955 36.7474 18.473V19.9305H36.2605V18.0493ZM40.5763 18.5405C40.5763 19.5518 39.8843 19.9925 39.2426 19.9925C38.523 19.9925 37.9587 19.45 37.9587 18.586C37.9587 17.6763 38.5508 17.1398 39.2869 17.1398C40.056 17.1398 40.5763 17.7098 40.5763 18.5405ZM38.4566 18.5691C38.4566 19.1679 38.7887 19.62 39.2646 19.62C39.7297 19.62 40.0781 19.1733 40.0781 18.5577C40.0781 18.0946 39.8512 17.5125 39.2756 17.5125C38.7058 17.5125 38.4566 18.0551 38.4566 18.5691ZM41.3226 17.9363C41.3226 17.6484 41.3167 17.4223 41.3002 17.1965H41.732L41.7596 17.6484H41.7706C41.9035 17.394 42.2134 17.14 42.6561 17.14C43.0267 17.14 43.6024 17.366 43.6024 18.3033V19.9305H43.1155V18.3544C43.1155 17.914 42.955 17.5465 42.4958 17.5465C42.1802 17.5465 41.931 17.7782 41.8428 18.0549C41.8205 18.1172 41.8095 18.2018 41.8095 18.2867V19.9305H41.3226V17.9363Z" fill="#1A1F71"/>
</g>
<defs>
<clipPath id="clip0_47_594">
<rect width="44" height="20" fill="white"/>
</clipPath>
</defs>
</svg>
