<svg width="27" height="30" viewBox="0 0 27 30" fill="none" xmlns="http://www.w3.org/2000/svg">
<path fill-rule="evenodd" clip-rule="evenodd" d="M9.28125 5.625V2.8125H17.7188V5.625H9.28125ZM6.46875 5.625V1.875C6.46875 1.37772 6.66629 0.900806 7.01793 0.549175C7.36956 0.197544 7.84647 0 8.34375 0L18.6562 0C19.1535 0 19.6304 0.197544 19.9821 0.549175C20.3337 0.900806 20.5312 1.37772 20.5312 1.875V5.625H25.2188C25.5917 5.625 25.9494 5.77316 26.2131 6.03688C26.4768 6.3006 26.625 6.65829 26.625 7.03125C26.625 7.40421 26.4768 7.7619 26.2131 8.02562C25.9494 8.28934 25.5917 8.4375 25.2188 8.4375H24.5344L23.1413 26.5369C23.069 27.479 22.6437 28.359 21.9505 29.0011C21.2574 29.6432 20.3474 29.9999 19.4025 30H7.5975C6.65264 29.9999 5.74264 29.6432 5.04946 29.0011C4.35628 28.359 3.93103 27.479 3.85875 26.5369L2.46563 8.4375H1.78125C1.40829 8.4375 1.0506 8.28934 0.786881 8.02562C0.523158 7.7619 0.375 7.40421 0.375 7.03125C0.375 6.65829 0.523158 6.3006 0.786881 6.03688C1.0506 5.77316 1.40829 5.625 1.78125 5.625H6.46875ZM5.2875 8.4375H21.7125L20.3363 26.3213C20.3183 26.5567 20.2122 26.7767 20.0391 26.9373C19.866 27.0979 19.6386 27.1872 19.4025 27.1875H7.5975C7.36137 27.1872 7.13404 27.0979 6.96093 26.9373C6.78783 26.7767 6.6817 26.5567 6.66375 26.3213L5.2875 8.4375Z" fill="#17B56A"/>
</svg>
