<svg width="16" height="15" viewBox="0 0 16 15" fill="none" xmlns="http://www.w3.org/2000/svg">
<path d="M2.43508 0.377422C2.1685 0.129022 1.81591 -0.00620882 1.4516 0.000219089C1.08728 0.00664699 0.739686 0.154232 0.482037 0.411881C0.224388 0.66953 0.0768031 1.01713 0.0703752 1.38144C0.0639473 1.74576 0.199178 2.09834 0.447578 2.36492L5.54758 7.46492L0.447578 12.5649C0.309415 12.6937 0.198599 12.8489 0.121739 13.0214C0.0448786 13.1939 0.00355032 13.3801 0.000218852 13.5689C-0.00311262 13.7578 0.0316211 13.9453 0.102348 14.1204C0.173075 14.2955 0.278346 14.4546 0.411881 14.5881C0.545416 14.7217 0.70448 14.8269 0.879583 14.8977C1.05469 14.9684 1.24224 15.0031 1.43106 14.9998C1.61988 14.9964 1.80609 14.9551 1.97859 14.8783C2.15109 14.8014 2.30634 14.6906 2.43508 14.5524L7.53508 9.45242L12.6351 14.5524C12.7638 14.6906 12.9191 14.8014 13.0916 14.8783C13.2641 14.9551 13.4503 14.9964 13.6391 14.9998C13.8279 15.0031 14.0155 14.9684 14.1906 14.8977C14.3657 14.8269 14.5247 14.7217 14.6583 14.5881C14.7918 14.4546 14.8971 14.2955 14.9678 14.1204C15.0385 13.9453 15.0733 13.7578 15.0699 13.5689C15.0666 13.3801 15.0253 13.1939 14.9484 13.0214C14.8716 12.8489 14.7607 12.6937 14.6226 12.5649L9.52258 7.46492L14.6226 2.36492C14.871 2.09834 15.0062 1.74576 14.9998 1.38144C14.9934 1.01713 14.8458 0.66953 14.5881 0.411881C14.3305 0.154232 13.9829 0.00664699 13.6186 0.000219089C13.2542 -0.00620882 12.9017 0.129022 12.6351 0.377422L7.53508 5.47742L2.43508 0.377422Z" fill="black"/>
</svg>
