<svg width="13" height="14" viewBox="0 0 13 14" fill="none" xmlns="http://www.w3.org/2000/svg">
<path d="M10.9886 10.8102L12.8651 12.6858C12.9527 12.7764 13.0011 12.8978 13 13.0237C12.9989 13.1497 12.9484 13.2702 12.8593 13.3593C12.7702 13.4484 12.6497 13.4989 12.5237 13.5C12.3978 13.5011 12.2764 13.4527 12.1858 13.3651L10.3092 11.4886C9.08293 12.5392 7.49735 13.0741 5.88521 12.9809C4.27307 12.8877 2.75969 12.1737 1.66262 10.9887C0.565551 9.80379 -0.0299204 8.23997 0.0011581 6.62544C0.0322366 5.01091 0.687449 3.47117 1.82931 2.32931C2.97117 1.18745 4.51091 0.532237 6.12544 0.501158C7.73997 0.47008 9.30379 1.06555 10.4887 2.16262C11.6737 3.25969 12.3877 4.77307 12.4809 6.38521C12.5741 7.99735 12.0392 9.58293 10.9886 10.8092V10.8102ZM6.24572 12.0305C7.64733 12.0305 8.99153 11.4737 9.98262 10.4826C10.9737 9.49153 11.5305 8.14733 11.5305 6.74572C11.5305 5.34411 10.9737 3.99991 9.98262 3.00882C8.99153 2.01773 7.64733 1.46095 6.24572 1.46095C4.84411 1.46095 3.49991 2.01773 2.50882 3.00882C1.51773 3.99991 0.960946 5.34411 0.960946 6.74572C0.960946 8.14733 1.51773 9.49153 2.50882 10.4826C3.49991 11.4737 4.84411 12.0305 6.24572 12.0305Z" fill="black" fill-opacity="0.6"/>
</svg>
